HIERARCHY
ROOT Hips
{
	OFFSET -0.179506 -22.333345 2.821913
	CHANNELS 6 Xposition Yposition Zposition Zrotation Yrotation Xrotation 
	JOINT LeftUpLeg
	{
		OFFSET 6.951974 -9.140623 -0.681533
		CHANNELS 3 Zrotation Yrotation Xrotation
		JOINT LeftLeg
		{
			OFFSET 3.427654 -37.519855 -0.449580
			CHANNELS 3 Zrotation Yrotation Xrotation
			JOINT LeftFoot
			{
				OFFSET -1.359570 -39.796059 -4.369333
				CHANNELS 3 Zrotation Yrotation Xrotation
				JOINT LeftToe
				{
					OFFSET 2.635814 -5.579078 11.928840
					CHANNELS 3 Zrotation Yrotation Xrotation
					End Site
					{
						OFFSET 0.000000 0.000000 0.000000
					}
				}
			}
		}
	}
	JOINT RightUpLeg
	{
		OFFSET -6.767048 -9.052170 -0.431982
		CHANNELS 3 Zrotation Yrotation Xrotation
		JOINT RightLeg
		{
			OFFSET -3.829005 -38.256897 -0.885003
			CHANNELS 3 Zrotation Yrotation Xrotation
			JOINT RightFoot
			{
				OFFSET 1.577377 -39.841461 -4.231180
				CHANNELS 3 Zrotation Yrotation Xrotation
				JOINT RightToe
				{
					OFFSET -2.537174 -4.814398 12.334795
					CHANNELS 3 Zrotation Yrotation Xrotation
					End Site
					{
						OFFSET 0.000000 0.000000 0.000000
					}
				}
			}
		}
	}
	JOINT Spine
	{
		OFFSET -0.253288 10.896323 -2.669631
		CHANNELS 3 Zrotation Yrotation Xrotation
		JOINT Spine1
		{
			OFFSET 0.548704 13.518043 0.109247
			CHANNELS 3 Zrotation Yrotation Xrotation
			JOINT Spine2
			{
				OFFSET 0.145701 5.292222 2.542457
				CHANNELS 3 Zrotation Yrotation Xrotation
				JOINT Neck
				{
					OFFSET -0.277840 21.387037 -4.285703
					CHANNELS 3 Zrotation Yrotation Xrotation
					JOINT Head
					{
						OFFSET 0.515184 6.496960 5.134897
						CHANNELS 3 Zrotation Yrotation Xrotation
						End Site
						{
							OFFSET 0.000000 0.000000 0.000000
						}
					}
				}
				JOINT LeftShoulder
				{
					OFFSET 7.884473 12.174932 -3.408961
					CHANNELS 3 Zrotation Yrotation Xrotation
					JOINT LeftArm
					{
						OFFSET 9.097692 3.046888 -0.886815
						CHANNELS 3 Zrotation Yrotation Xrotation
						JOINT LeftForeArm
						{
							OFFSET 25.961220 -1.277207 -2.745643
							CHANNELS 3 Zrotation Yrotation Xrotation
							JOINT LeftHand
							{
								OFFSET 24.923361 0.898606 -0.117091
								CHANNELS 3 Zrotation Yrotation Xrotation
								End Site
								{
									OFFSET 0.000000 0.000000 0.000000
								}
							}
						}
					}
				}
				JOINT RightShoulder
				{
					OFFSET -8.175920 11.883285 -3.861528
					CHANNELS 3 Zrotation Yrotation Xrotation
					JOINT RightArm
					{
						OFFSET -9.601238 3.255117 -0.914307
						CHANNELS 3 Zrotation Yrotation Xrotation
						JOINT RightForeArm
						{
							OFFSET -25.374195 -1.332924 -2.140099
							CHANNELS 3 Zrotation Yrotation Xrotation
							JOINT RightHand
							{
								OFFSET -25.529810 0.777228 -0.555919
								CHANNELS 3 Zrotation Yrotation Xrotation
								End Site
								{
									OFFSET 0.000000 0.000000 0.000000
								}
							}
						}
					}
				}
			}
		}
	}
}
MOTION
Frames: 7
Frame Time: 0.033333
3.858538 -105.183556 88.083488 -119.035113 2.931656 83.613294 13.094836 5.525906 -8.901675 -5.798197 6.264625 33.624162 1.646675 10.237482 -27.302016 nan nan nan -17.526073 -13.871366 -11.247882 2.624715 -16.748803 24.309517 5.370481 -5.337233 -4.739754 nan nan nan -4.679014 3.684440 7.681361 8.497518 -5.386623 10.141817 2.579335 0.781050 -5.954404 3.749246 -19.349353 15.244820 2.849617 -21.765893 15.463630 -11.638939 -11.519754 1.002927 -73.630718 -49.786266 38.939054 100.369081 -78.447801 -82.010327 -9.078657 -18.369921 -7.477683 16.910709 8.572313 -3.945998 30.942610 17.084865 -8.554121 -74.434939 40.752581 -65.849860 10.566268 7.179048 -4.593530 
3.867777 -105.193298 88.119102 -119.006104 2.974831 83.766191 13.024154 5.574187 -9.215933 -5.539200 6.298951 33.876740 1.636281 10.054332 -27.367338 nan nan nan -17.446358 -13.744107 -11.378745 2.535139 -16.940877 24.277173 5.373136 -5.217405 -4.645994 nan nan nan -4.683798 3.944811 7.300270 8.613104 -5.712707 10.603896 2.715405 0.636481 -6.229321 3.699594 -18.921656 15.629165 3.085860 -21.953889 14.788905 -11.559367 -12.053667 0.858580 -72.648315 -49.169221 38.044555 101.559766 -78.504002 -82.952869 -9.337134 -19.192988 -6.465706 16.797902 9.056618 -4.100429 30.759390 16.506608 -8.577900 -74.170078 40.869804 -65.968782 10.702123 7.730407 -4.547615 
3.856740 -105.209328 88.124458 -118.965801 2.974547 83.825717 12.945928 5.587543 -9.408003 -5.432045 6.309235 34.111109 1.674609 10.051555 -27.464428 nan nan nan -17.477238 -13.727564 -11.364105 2.562786 -16.986201 24.212744 5.391202 -5.163385 -4.628131 nan nan nan -4.645763 4.127535 7.176850 8.650471 -5.859400 10.766557 2.729781 0.564999 -6.379906 3.590321 -18.905935 15.690805 3.178598 -21.925221 14.694787 -11.843893 -12.217014 0.910264 -72.332768 -49.104555 37.845613 101.607857 -78.573246 -83.032955 -9.586339 -19.204026 -5.712809 16.806363 9.098269 -4.130844 30.656414 16.311991 -8.629502 -74.154107 40.978867 -66.195718 10.832066 7.747593 -4.427031 
3.847957 -105.220787 88.126152 -118.955270 3.006082 83.863837 12.943851 5.618525 -9.524257 -5.350774 6.343855 34.270082 1.728143 10.007928 -27.525655 nan nan nan -17.465565 -13.743355 -11.318775 2.622070 -17.009695 24.103232 5.422215 -5.190505 -4.629031 nan nan nan -4.565313 4.172524 7.338681 8.683215 -5.940173 10.414901 2.724725 0.542341 -6.296849 3.556769 -18.942646 15.567190 3.010803 -21.873556 14.841061 -11.978156 -12.184786 0.929955 -72.483602 -48.994331 37.944455 102.472541 -78.438858 -84.124554 -9.704598 -19.013711 -5.731965 16.774842 9.030682 -4.145594 30.738056 16.290778 -8.543959 -74.252567 41.052689 -66.270873 10.853237 7.596207 -4.382928 
3.853909 -105.245461 88.123581 -118.984886 3.001410 83.872087 12.930822 5.602353 -9.542066 -5.305648 6.375181 34.294683 1.890889 9.973392 -27.591373 nan nan nan -17.469739 -13.753098 -11.321006 2.634460 -16.985411 24.078204 5.496852 -5.253676 -4.594125 nan nan nan -4.469161 4.107562 7.518723 8.656801 -5.890363 10.106056 2.572759 0.696547 -6.118735 3.571603 -18.995637 15.013336 2.990824 -21.636512 15.278390 -12.144380 -11.847177 0.915095 -73.093251 -49.281115 38.556803 101.630943 -78.579516 -83.065465 -9.276582 -18.237895 -5.565591 16.820335 8.637703 -4.236608 30.914718 16.522706 -8.525648 -74.360894 41.260484 -66.362234 10.546707 7.293137 -4.252054 
3.835898 -105.233627 88.136566 -119.094833 2.974689 83.627593 12.995567 5.566542 -9.165639 -5.025056 6.818450 34.206040 2.099215 9.449324 -27.673964 nan nan nan -17.595476 -13.567391 -10.994176 2.444998 -17.470260 24.119426 5.848739 -4.648415 -4.668177 nan nan nan -4.724535 4.232471 7.941182 8.711296 -5.775234 10.247742 2.625450 1.082639 -5.945860 4.649879 -17.827749 13.321373 3.555355 -22.554514 15.320328 -11.477691 -11.850342 0.509481 -74.087712 -49.693104 39.504205 104.933605 -79.088144 -86.575096 -7.250264 -24.313993 -4.589996 16.720563 8.406604 -5.343763 31.086429 15.935422 -8.576761 -74.189204 41.550301 -66.389311 10.544832 8.693588 -3.142521 
3.816418 -105.246185 88.144981 -119.109404 2.991698 83.644500 12.997413 5.586382 -9.181740 -5.023314 6.802304 34.183278 2.237692 9.497849 -27.664549 nan nan nan -17.585110 -13.561780 -10.989554 2.453330 -17.441432 24.118842 5.900637 -4.643258 -4.650198 nan nan nan -4.688482 4.159789 7.892158 8.697975 -5.742183 10.320433 2.615874 1.204566 -5.931093 4.592122 -17.778224 13.350790 3.770202 -22.564982 14.968624 -11.506775 -11.909546 0.499721 -74.001013 -49.738355 39.445208 104.720325 -79.277366 -86.123685 -6.865880 -24.472063 -4.203638 16.674332 8.460094 -5.499680 31.122375 15.666872 -8.599808 -74.299999 41.607201 -66.351519 10.470983 8.743726 -3.267523 
